<svg width="29" height="25" viewBox="0 0 29 25" fill="none" xmlns="http://www.w3.org/2000/svg">
<path fill-rule="evenodd" clip-rule="evenodd" d="M0 4.6875C0 2.09867 2.09867 0 4.6875 0H23.4375C26.0263 0 28.125 2.09867 28.125 4.6875V20.3125C28.125 22.9013 26.0263 25 23.4375 25H4.6875C2.09867 25 0 22.9013 0 20.3125V4.6875ZM4.6875 2.03125H23.4375C24.9045 2.03125 26.0938 3.22049 26.0938 4.6875V6.79684H2.03125V4.6875C2.03125 3.22049 3.22049 2.03125 4.6875 2.03125ZM2.03125 8.82809H8.69789L8.69789 22.9688H4.6875C3.22049 22.9688 2.03125 21.7795 2.03125 20.3125V8.82809ZM10.7291 22.9688L10.7291 8.82809H17.3958L17.3958 22.9688H10.7291ZM19.427 22.9688H23.4375C24.9045 22.9688 26.0938 21.7795 26.0938 20.3125V8.82809H19.427L19.427 22.9688Z" fill="currentColor"/>
</svg>
