<svg width="25" height="25" viewBox="0 0 25 25" fill="none" xmlns="http://www.w3.org/2000/svg">
<path d="M12.6058 2.12652C15.4411 -0.708837 20.0381 -0.708841 22.8735 2.12652C25.7089 4.96187 25.7089 9.55889 22.8735 12.3942L19.5739 15.6939C19.216 16.0517 18.6358 16.0517 18.2779 15.6939C17.9201 15.336 17.9201 14.7558 18.2779 14.3979L21.5776 11.0983C23.6972 8.97869 23.6972 5.54208 21.5776 3.42244C19.4579 1.30281 16.0213 1.30281 13.9017 3.42245L10.6021 6.72206C10.2442 7.07992 9.664 7.07992 9.30614 6.72206C8.94828 6.3642 8.94828 5.784 9.30614 5.42614L12.6058 2.12652Z" fill="currentColor"/>
<path d="M12.3943 22.8735C9.5589 25.7088 4.96187 25.7088 2.12652 22.8735C-0.70884 20.0381 -0.708839 15.4411 2.12652 12.6057L5.31866 9.41361C5.67652 9.05575 6.25672 9.05575 6.61458 9.41361C6.97245 9.77147 6.97245 10.3517 6.61458 10.7095L3.42245 13.9017C1.30281 16.0213 1.30281 19.4579 3.42245 21.5776C5.54208 23.6972 8.97869 23.6972 11.0983 21.5776L14.2905 18.3854C14.6483 18.0276 15.2285 18.0276 15.5864 18.3854C15.9443 18.7433 15.9443 19.3235 15.5864 19.6813L12.3943 22.8735Z" fill="currentColor"/>
<path d="M16.0848 10.2111C16.4427 9.85324 16.4427 9.27304 16.0848 8.91517C15.727 8.55731 15.1468 8.55731 14.7889 8.91517L8.80769 14.8964C8.44983 15.2542 8.44982 15.8344 8.80769 16.1923C9.16555 16.5502 9.74575 16.5502 10.1036 16.1923L16.0848 10.2111Z" fill="currentColor"/>
</svg>
