<svg width="25" height="25" viewBox="0 0 25 25" fill="none" xmlns="http://www.w3.org/2000/svg">
<path fill-rule="evenodd" clip-rule="evenodd" d="M13.3828 4.27902L13.3828 0.901431C13.3828 0.403585 12.9792 0 12.4813 0C11.9835 0 11.5799 0.403585 11.5799 0.901431V4.27902C9.71554 4.69085 8.3209 6.35333 8.3209 8.34155C8.3209 10.6393 10.1836 12.502 12.4813 12.502C14.7791 12.502 16.6418 10.6393 16.6418 8.34155C16.6418 6.35333 15.2471 4.69085 13.3828 4.27902ZM12.4813 5.98396C13.7834 5.98396 14.8389 7.03949 14.8389 8.34155C14.8389 9.64361 13.7834 10.6991 12.4813 10.6991C11.1793 10.6991 10.1238 9.64361 10.1238 8.34155C10.1238 7.03949 11.1793 5.98396 12.4813 5.98396Z" fill="currentColor"/>
<path d="M13.3828 24.0985C13.3828 24.5964 12.9792 25 12.4813 25C11.9835 25 11.5799 24.5964 11.5799 24.0985V15.965C11.5799 15.4672 11.9835 15.0636 12.4813 15.0636C12.9792 15.0636 13.3828 15.4672 13.3828 15.965V24.0985Z" fill="currentColor"/>
<path d="M4.16045 9.96699C4.65829 9.96699 5.06188 9.5634 5.06188 9.06556L5.06188 0.901455C5.06188 0.403609 4.65829 2.3828e-05 4.16045 2.38063e-05C3.6626 2.37845e-05 3.25902 0.403609 3.25902 0.901455V9.06556C3.25902 9.5634 3.6626 9.96699 4.16045 9.96699Z" fill="currentColor"/>
<path d="M21.7037 0.901473C21.7037 0.403626 21.3001 4.23223e-05 20.8022 4.23223e-05C20.3044 4.23223e-05 19.9008 0.403626 19.9008 0.901473V9.06956C19.9008 9.56741 20.3044 9.97099 20.8022 9.97099C21.3001 9.97099 21.7037 9.56741 21.7037 9.06956V0.901473Z" fill="currentColor"/>
<path fill-rule="evenodd" clip-rule="evenodd" d="M21.7037 20.725C23.568 20.3131 24.9627 18.6507 24.9627 16.6624C24.9627 14.3647 23.1 12.502 20.8022 12.502C18.5045 12.502 16.6418 14.3647 16.6418 16.6624C16.6418 18.6507 18.0364 20.3131 19.9008 20.725V24.0986C19.9008 24.5964 20.3044 25 20.8022 25C21.3001 25 21.7037 24.5964 21.7037 24.0986V20.725ZM23.1598 16.6624C23.1598 17.9645 22.1043 19.02 20.8022 19.02C19.5002 19.02 18.4447 17.9645 18.4447 16.6624C18.4447 15.3604 19.5002 14.3049 20.8022 14.3049C22.1043 14.3049 23.1598 15.3604 23.1598 16.6624Z" fill="currentColor"/>
<path fill-rule="evenodd" clip-rule="evenodd" d="M4.16045 25C4.65829 25 5.06188 24.5964 5.06188 24.0986V20.721C6.92625 20.3092 8.3209 18.6467 8.3209 16.6585C8.3209 14.3607 6.4582 12.498 4.16045 12.498C1.8627 12.498 0 14.3607 0 16.6585C0 18.6467 1.39464 20.3092 3.25902 20.721V24.0986C3.25902 24.5964 3.6626 25 4.16045 25ZM6.51803 16.6585C6.51803 15.3564 5.46251 14.3009 4.16045 14.3009C2.85839 14.3009 1.80286 15.3564 1.80286 16.6585C1.80286 17.9605 2.85839 19.0161 4.16045 19.0161C5.46251 19.0161 6.51803 17.9605 6.51803 16.6585Z" fill="currentColor"/>
</svg>
