<svg width="26" height="25" viewBox="0 0 26 25" fill="none" xmlns="http://www.w3.org/2000/svg">
<path fill-rule="evenodd" clip-rule="evenodd" d="M1.0208 0C1.58457 0 2.0416 0.457027 2.0416 1.0208L2.0416 21.9376C2.0416 22.5014 2.49862 22.9584 3.06239 22.9584H24.0866C24.6504 22.9584 25.1074 23.4154 25.1074 23.9792C25.1074 24.543 24.6504 25 24.0866 25H3.06239C1.37108 25 0 23.6289 0 21.9376L0 1.0208C0 0.457027 0.457027 0 1.0208 0ZM24.5938 6.15558C24.3785 5.96394 24.0923 5.87223 23.8057 5.90309L19.0613 6.41407C18.5008 6.47444 18.0953 6.97778 18.1557 7.53831C18.216 8.09883 18.7194 8.5043 19.2799 8.44393L21.4362 8.21169L15.8298 13.818L11.3387 9.32692C11.1473 9.13548 10.8876 9.02793 10.6169 9.02793C10.3462 9.02793 10.0865 9.13548 9.89509 9.32692L4.68216 14.5399C4.28351 14.9385 4.28351 15.5848 4.68216 15.9835C5.08081 16.3821 5.72714 16.3821 6.12579 15.9835L10.6169 11.4924L15.108 15.9835C15.2995 16.1749 15.5591 16.2825 15.8298 16.2825C16.1006 16.2825 16.3602 16.1749 16.5517 15.9835L22.9177 9.61742L22.9348 11.5843C22.9398 12.1481 23.4007 12.6011 23.9645 12.5962C24.5282 12.5913 24.9813 12.1303 24.9764 11.5665L24.9358 6.90913C24.9333 6.62093 24.8091 6.34722 24.5938 6.15558Z" fill="currentColor"/>
</svg>
