<svg width="14" height="16" viewBox="0 0 14 16" fill="none" xmlns="http://www.w3.org/2000/svg">
<path fill-rule="evenodd" clip-rule="evenodd" d="M4.64468 0.730301C4.08622 -0.0525317 2.99898 -0.234608 2.21594 0.323567L1.13664 1.09293C0.544757 1.51484 0.0485422 2.17361 0.00873448 3.00693C-0.0610081 4.46688 0.238039 7.28041 2.71045 10.7461C5.17084 14.195 7.75842 15.4483 9.18366 15.8957C10.0066 16.1541 10.8261 15.9032 11.4441 15.4627L12.4851 14.7206C13.2685 14.1622 13.4507 13.0742 12.8919 12.291L11.5895 10.4653C11.0309 9.68229 9.9433 9.50035 9.16026 10.059L8.25616 10.7039C8.25421 10.7053 8.25246 10.7064 8.25096 10.7071C7.78515 10.3578 6.88244 9.59799 6.04201 8.41991C5.20158 7.24182 4.77692 6.14098 4.5982 5.58684C4.59942 5.58567 4.60097 5.58436 4.60292 5.58297L5.50702 4.93799C6.29006 4.37938 6.47199 3.29176 5.91339 2.50873L4.64468 0.730301Z" fill="#0050D6"/>
</svg>
