<svg width="23" height="25" viewBox="0 0 23 25" fill="none" xmlns="http://www.w3.org/2000/svg">
<path fill-rule="evenodd" clip-rule="evenodd" d="M18.2976 0C20.5186 0 22.319 1.80046 22.319 4.02145V17.4263C22.319 19.6473 20.5186 21.4477 18.2976 21.4477H7.57373C5.35274 21.4477 3.55228 19.6473 3.55228 17.4263V4.02145C3.55228 1.80046 5.35274 0 7.57373 0H18.2976ZM7.57373 1.74263H18.2976C19.5561 1.74263 20.5764 2.76289 20.5764 4.02145V17.4263C20.5764 18.6848 19.5561 19.7051 18.2976 19.7051H7.57373C6.31517 19.7051 5.29491 18.6848 5.29491 17.4263V4.02145C5.29491 2.76289 6.31517 1.74263 7.57373 1.74263ZM0 8.0429C0 7.56168 0.390099 7.17158 0.871313 7.17158C1.35253 7.17158 1.74263 7.56168 1.74263 8.0429V20.6434C1.74263 22.0871 2.91293 23.2574 4.35657 23.2574H15.6166C16.0978 23.2574 16.4879 23.6475 16.4879 24.1287C16.4879 24.6099 16.0978 25 15.6166 25H4.35657C1.9505 25 0 23.0495 0 20.6434V8.0429ZM13.4377 6.0958C13.4377 6.57701 13.0476 6.96711 12.5664 6.96711L8.9415 6.9671C8.46029 6.9671 8.07019 6.577 8.07019 6.09579C8.07019 5.61458 8.46029 5.22448 8.9415 5.22448L12.5664 5.22449C13.0476 5.22449 13.4377 5.61459 13.4377 6.0958ZM16.9279 11.672C17.4091 11.672 17.7992 11.2819 17.7992 10.8007C17.7992 10.3195 17.4091 9.92942 16.9279 9.92942L8.9415 9.92942C8.46029 9.92942 8.07019 10.3195 8.07019 10.8007C8.07019 11.2819 8.46029 11.672 8.9415 11.672L16.9279 11.672ZM17.7992 15.5057C17.7992 15.9869 17.4091 16.377 16.9279 16.377L8.9415 16.377C8.46029 16.377 8.07019 15.9869 8.07019 15.5057C8.07019 15.0245 8.46029 14.6344 8.9415 14.6344L16.9279 14.6344C17.4091 14.6344 17.7992 15.0245 17.7992 15.5057Z" fill="currentColor"/>
</svg>
