<svg width="25" height="25" viewBox="0 0 25 25" fill="none" xmlns="http://www.w3.org/2000/svg">
<path fill-rule="evenodd" clip-rule="evenodd" d="M23.541 15.2983L17.2553 21.584C13.3423 25.497 6.99811 25.497 3.08511 21.584C-0.827891 17.671 -0.827884 11.3268 3.08512 7.41378L9.3708 1.12812C10.049 0.449864 11.1487 0.449864 11.827 1.12812L14.6015 3.90262C15.2797 4.58088 15.2797 5.68055 14.6015 6.3588L8.58145 12.3788C7.54298 13.4173 7.54298 15.101 8.58144 16.1394C9.61991 17.1779 11.3036 17.1779 12.3421 16.1394L18.3621 10.1194C19.0403 9.44117 20.14 9.44117 20.8183 10.1194L23.541 12.8422C24.2193 13.5204 24.2193 14.6201 23.541 15.2983ZM16.0272 20.3559L19.018 17.3652L16.2952 14.6424L13.5701 17.3675C11.8534 19.0842 9.07007 19.0842 7.35335 17.3675C5.63664 15.6508 5.63664 12.8674 7.35337 11.1507L10.0784 8.42564L7.30394 5.65114L4.31321 8.64187C1.07846 11.8766 1.07845 17.1212 4.3132 20.3559C7.54794 23.5907 12.7925 23.5907 16.0272 20.3559ZM8.53203 4.42305L11.3065 7.19756L13.3734 5.13071L10.5989 2.3562L8.53203 4.42305ZM22.3129 14.0703L20.2461 16.1371L17.5233 13.4143L19.5902 11.3475L22.3129 14.0703Z" fill="currentColor"/>
</svg>
