<svg width="88" height="31" viewBox="0 0 88 31" fill="none" xmlns="http://www.w3.org/2000/svg">
<path fill-rule="evenodd" clip-rule="evenodd" d="M25.0357 4.21928H4.45281L5.93787 0H26.5208L25.0357 4.21928ZM24.2926 6.32851H3.70937L2.22431 10.5478H22.8075L24.2926 6.32851ZM22.0679 12.6575H1.48506L0 16.8768H20.5829L22.0679 12.6575Z" fill="#00A5FF"/>
<path fill-rule="evenodd" clip-rule="evenodd" d="M75.4813 26.0907H79.2241C80.6437 26.0907 81.5041 25.7568 82.1064 25.0063C82.4076 24.6306 82.8378 23.9633 82.8378 22.712C82.8378 21.4606 82.4076 20.5846 81.5472 19.9591C81.0311 19.5834 80.3425 19.375 79.1809 19.375H75.4813V26.0907ZM70.5337 30.1369V6.02728H86.7094L85.2898 10.0737H75.4812V15.4125H79.482C82.7086 15.4125 84.3863 16.1635 85.5479 17.1228C86.4514 17.8737 88 19.5422 88 22.8373C88 26.0909 86.4082 27.8844 85.0745 28.802C83.5259 29.8449 81.8914 30.1369 78.5788 30.1369H70.5337ZM56.2083 30.1369V10.0737H49.024V6.02728H68.9852L67.5656 10.0737H61.1985V30.1369H56.2083ZM36.2901 15.6629H39.0865C39.9465 15.6629 40.3767 15.6629 40.8073 15.5374C41.9689 15.2039 42.6999 14.2028 42.6999 12.8264C42.6999 11.1994 41.9257 10.4906 40.8073 10.1568C40.334 10.0317 39.8607 9.98985 38.9144 9.98985H36.2901V15.6629ZM36.3333 19.834V26.174H39.7749C40.8074 26.174 41.7537 26.0907 42.4419 25.4649C43.1302 24.8394 43.4313 24.047 43.4313 23.004C43.4313 22.2116 43.2164 21.4607 42.7862 20.9184C42.0549 20.0424 41.1513 19.834 39.6027 19.834H36.3333ZM44.2918 17.2898V17.3731C45.2381 17.7069 46.1413 18.2909 46.6146 18.6662C48.0773 19.8343 48.7228 21.3777 48.7228 23.3796C48.7228 26.675 46.9158 29.0526 43.9475 29.8032C43.044 30.0534 42.0977 30.137 40.3338 30.137H31.3424V6.02739H39.3013C40.9362 6.02739 42.0546 6.11103 43.044 6.36122C45.9264 7.11217 47.8193 9.03082 47.8193 12.0757C47.8193 13.7027 47.217 15.0791 46.2275 15.9966C45.7973 16.4138 45.195 16.9145 44.2918 17.2898Z" fill="#022D9A"/>
</svg>
